<mxfile host="app.diagrams.net" modified="2022-06-24T10:04:22.319Z" agent="5.0 (Windows NT 10.0; Win64; x64) AppleWebKit/537.36 (KHTML, like Gecko) Chrome/102.0.5005.124 Safari/537.36 Edg/102.0.1245.44" etag="Df3vyEJlEQmIT12XOzAn" version="20.0.3" type="github">
  <diagram id="_zcOvDsHGXR2nhW8fiFH" name="Page-1">
    <mxGraphModel dx="782" dy="698" grid="1" gridSize="10" guides="1" tooltips="1" connect="1" arrows="1" fold="1" page="1" pageScale="1" pageWidth="850" pageHeight="1100" math="0" shadow="0">
      <root>
        <mxCell id="0" />
        <mxCell id="1" parent="0" />
      </root>
    </mxGraphModel>
  </diagram>
</mxfile>
